<svg width="36" height="26" viewBox="0 0 36 26" fill="none" xmlns="http://www.w3.org/2000/svg">
<path d="M34.0354 5.94362C33.4197 5.29381 32.6751 4.77978 31.8492 4.43446C31.0233 4.08915 30.1344 3.92016 29.2394 3.93833H24.2982V1.16305C24.2962 0.92503 24.2007 0.697331 24.0324 0.529019C23.8641 0.360706 23.6364 0.265259 23.3984 0.263245H0.903106C0.665085 0.265259 0.437383 0.360706 0.269071 0.529019C0.100758 0.697331 0.00531029 0.92503 0.0032959 1.16305V21.063C0.00531029 21.301 0.100758 21.5287 0.269071 21.697C0.437383 21.8653 0.665085 21.9608 0.903106 21.9628H4.50235C4.64605 22.7886 5.07657 23.5372 5.71806 24.0767C6.35955 24.6162 7.17085 24.912 8.00904 24.912C8.84723 24.912 9.65853 24.6162 10.3 24.0767C10.9415 23.5372 11.372 22.7886 11.5157 21.9628H25.3779C25.5217 22.7886 25.9522 23.5372 26.5937 24.0767C27.2351 24.6162 28.0464 24.912 28.8846 24.912C29.7228 24.912 30.5341 24.6162 31.1756 24.0767C31.8171 23.5372 32.2476 22.7886 32.3913 21.9628H35.0908C35.3288 21.9608 35.5565 21.8653 35.7248 21.697C35.8931 21.5287 35.9886 21.301 35.9906 21.063V11.7127C36.0905 9.61181 35.392 7.55089 34.0354 5.94362ZM1.8132 2.06801H22.4896V20.1658H11.3679C11.1216 19.4749 10.6677 18.8771 10.0683 18.4544C9.4689 18.0317 8.75341 17.8048 8.01996 17.8048C7.28652 17.8048 6.57103 18.0317 5.97163 18.4544C5.37223 18.8771 4.91828 19.4749 4.67203 20.1658H1.8132V2.06801ZM8.01932 23.1069C7.67347 23.1061 7.3356 23.0028 7.04841 22.8101C6.76122 22.6175 6.53758 22.3439 6.40576 22.0242C6.27393 21.7045 6.23984 21.3528 6.30778 21.0137C6.37572 20.6746 6.54264 20.3632 6.78746 20.1189C7.03229 19.8747 7.34402 19.7084 7.68329 19.6412C8.02255 19.574 8.37411 19.6089 8.69357 19.7414C9.01302 19.874 9.28602 20.0982 9.47809 20.3858C9.67016 20.6734 9.77267 21.0115 9.77267 21.3574C9.7725 21.5874 9.727 21.8151 9.63878 22.0276C9.55056 22.24 9.42134 22.433 9.25851 22.5954C9.09568 22.7579 8.90243 22.8867 8.68981 22.9744C8.47718 23.0622 8.24934 23.1072 8.01932 23.1069ZM28.8846 23.1069C28.5386 23.1069 28.2004 23.0043 27.9127 22.812C27.625 22.6198 27.4007 22.3465 27.2683 22.0269C27.1359 21.7072 27.1013 21.3554 27.1688 21.0161C27.2363 20.6767 27.4029 20.365 27.6476 20.1203C27.8922 19.8756 28.204 19.709 28.5433 19.6415C28.8827 19.574 29.2345 19.6086 29.5541 19.7411C29.8738 19.8735 30.147 20.0977 30.3393 20.3854C30.5315 20.6731 30.6341 21.0114 30.6341 21.3574C30.6338 21.8213 30.4494 22.266 30.1213 22.5941C29.7933 22.9221 29.3485 23.1065 28.8846 23.1069ZM34.1781 20.158H32.2332C31.987 19.4672 31.533 18.8694 30.9336 18.4467C30.3342 18.024 29.6187 17.7971 28.8853 17.7971C28.1518 17.7971 27.4363 18.024 26.837 18.4467C26.2376 18.8694 25.7836 19.4672 25.5373 20.158H24.3085V5.74823H29.2471C32.2936 5.74823 34.1858 8.03246 34.1858 11.7127V20.158H34.1781Z" fill="#3FEFC2"/>
</svg>
