<svg width="36" height="26" viewBox="0 0 36 26" fill="none" xmlns="http://www.w3.org/2000/svg">
<path d="M30 11.281H29.345V7.344C29.3442 6.57114 29.0368 5.83016 28.4903 5.28366C27.9438 4.73716 27.2029 4.4298 26.43 4.429H25.83L25.836 2.966C25.8357 2.44467 25.6285 1.94476 25.2599 1.57612C24.8912 1.20748 24.3913 1.00026 23.87 1H6.389C5.76115 1.0002 5.1586 1.24744 4.71157 1.6883C4.26454 2.12916 4.00893 2.72822 4 3.356V22.675C4.00026 23.1963 4.20748 23.6962 4.57612 24.0649C4.94476 24.4335 5.44467 24.6407 5.966 24.641H26.436C27.2089 24.6402 27.9498 24.3328 28.4963 23.7863C29.0428 23.2398 29.3502 22.4989 29.351 21.726V17.783H30.006C30.4125 17.7825 30.8023 17.621 31.0901 17.334C31.3779 17.0469 31.5404 16.6575 31.542 16.251V12.818C31.5394 12.4103 31.3759 12.0201 31.0871 11.7323C30.7984 11.4445 30.4077 11.2823 30 11.281ZM6.389 2.357H23.866C24.0261 2.35698 24.1797 2.41987 24.2938 2.53212C24.408 2.64436 24.4734 2.79696 24.476 2.957L24.47 4.426H6.389C6.11968 4.41763 5.86418 4.30477 5.67663 4.1113C5.48908 3.91783 5.3842 3.65895 5.3842 3.3895C5.3842 3.12005 5.48908 2.86117 5.67663 2.66771C5.86418 2.47424 6.11968 2.36137 6.389 2.353V2.357ZM27.989 21.72C27.9882 22.1332 27.8237 22.5293 27.5315 22.8215C27.2393 23.1137 26.8432 23.2782 26.43 23.279H5.96C5.7983 23.2787 5.6433 23.2144 5.52896 23.1C5.41462 22.9857 5.35026 22.8307 5.35 22.669V5.551C5.67396 5.70755 6.0292 5.78859 6.389 5.788H26.43C26.8432 5.78879 27.2393 5.9533 27.5315 6.24549C27.8237 6.53769 27.9882 6.93377 27.989 7.347V11.281H23.363C22.9558 11.2815 22.5654 11.4435 22.2775 11.7315C21.9895 12.0194 21.8275 12.4098 21.827 12.817V16.251C21.8275 16.6582 21.9895 17.0486 22.2775 17.3365C22.5654 17.6245 22.9558 17.7865 23.363 17.787H27.989V21.724V21.72ZM30.181 16.251C30.1814 16.2749 30.177 16.2986 30.168 16.3207C30.1591 16.3429 30.1458 16.363 30.1289 16.3799C30.112 16.3968 30.0919 16.4101 30.0697 16.419C30.0476 16.428 30.0239 16.4324 30 16.432H23.369C23.3451 16.4324 23.3214 16.428 23.2993 16.419C23.2771 16.4101 23.257 16.3968 23.2401 16.3799C23.2232 16.363 23.2099 16.3429 23.201 16.3207C23.192 16.2986 23.1876 16.2749 23.188 16.251V12.818C23.1883 12.7701 23.2074 12.7242 23.2413 12.6903C23.2752 12.6564 23.3211 12.6373 23.369 12.637H30C30.0479 12.6373 30.0938 12.6564 30.1277 12.6903C30.1616 12.7242 30.1807 12.7701 30.181 12.818V16.251Z" fill="#3FEFC2"/>
</svg>
