<svg width="36" height="26" viewBox="0 0 36 26" fill="none" xmlns="http://www.w3.org/2000/svg">
<path d="M23.299 26C23.0842 26 22.8781 25.9099 22.7262 25.7495C22.5744 25.5891 22.4893 25.3715 22.4893 25.1447V17.717C22.4893 17.4902 22.5744 17.2726 22.7262 17.1122C22.8781 16.9518 23.0842 16.8617 23.299 16.8617H24.4894V14.8627C24.4918 13.6709 24.9413 12.5287 25.7394 11.6861C26.5375 10.8436 27.6191 10.3694 28.7474 10.3675C29.8758 10.3694 30.9574 10.8436 31.7555 11.6861C32.5536 12.5287 33.003 13.6709 33.0055 14.8627V16.8617H34.1959C34.3022 16.8609 34.4077 16.8825 34.506 16.9252C34.6042 16.968 34.6934 17.0311 34.7683 17.1108C34.8432 17.1904 34.9022 17.2851 34.942 17.3892C34.9818 17.4933 35.0015 17.6047 34.9999 17.717V25.1386C34.9999 25.3654 34.9145 25.583 34.7627 25.7434C34.6108 25.9038 34.405 25.9939 34.1902 25.9939L23.299 26ZM24.1087 24.2796H33.3757V18.5723H24.1087V24.2796ZM26.1099 14.8591V16.8568H31.3827V14.8591C31.3818 14.121 31.1037 13.4133 30.6094 12.8915C30.1152 12.3697 29.4451 12.0763 28.7463 12.0757C28.0475 12.0763 27.3774 12.3697 26.8832 12.8915C26.3889 13.4133 26.1108 14.121 26.1099 14.8591ZM4.27094 22.288C3.66926 22.2867 3.09235 22.0337 2.66679 21.5845C2.24124 21.1352 2.00153 20.5262 2 19.8907V2.39726C2.00015 2.08229 2.05915 1.77046 2.17341 1.47952C2.28766 1.18858 2.45498 0.924226 2.66595 0.701617C2.87692 0.479007 3.1275 0.302505 3.40306 0.182116C3.67862 0.0617278 3.97386 -0.000160187 4.27207 3.11373e-07H30.5868C31.1887 0.00129179 31.7654 0.254399 32.191 0.703928C32.6166 1.15346 32.8563 1.7628 32.8575 2.39853V8.57258C32.8575 8.79942 32.7721 9.01699 32.6202 9.17739C32.4684 9.33779 32.2625 9.4279 32.0478 9.4279C31.9414 9.4279 31.8362 9.40577 31.738 9.36279C31.6397 9.31981 31.5502 9.25681 31.475 9.17739C31.3998 9.09797 31.3403 9.00366 31.2997 8.89989C31.259 8.79612 31.2381 8.6849 31.2381 8.57258V6.86201H3.62646V19.8956C3.62646 20.0774 3.69482 20.2517 3.81652 20.3803C3.93823 20.5088 4.10334 20.581 4.27546 20.581H19.9291C20.0362 20.5799 20.1423 20.6012 20.2415 20.6437C20.3407 20.6862 20.4309 20.749 20.507 20.8285C20.583 20.908 20.6434 21.0027 20.6846 21.107C20.7258 21.2114 20.747 21.3233 20.747 21.4364C20.747 21.6632 20.6617 21.8808 20.5098 22.0412C20.3579 22.2016 20.1521 22.2917 19.9373 22.2917L4.27094 22.288ZM3.61488 2.39726V5.14526H31.2333V2.39726C31.2333 2.21547 31.1649 2.04114 31.0432 1.91259C30.9215 1.78404 30.7564 1.71183 30.5843 1.71183H4.27207C4.09902 1.71118 3.93259 1.78288 3.80946 1.91132C3.68634 2.03977 3.6164 2.21448 3.61488 2.39726ZM7.67749 17.1428C7.46273 17.1428 7.25688 17.0526 7.10502 16.8922C6.95316 16.7318 6.86779 16.5143 6.86779 16.2874C6.86779 16.0606 6.95316 15.843 7.10502 15.6826C7.25688 15.5222 7.46273 15.4321 7.67749 15.4321H11.5783C11.6846 15.4321 11.7898 15.4543 11.8881 15.4972C11.9863 15.5402 12.0758 15.6032 12.151 15.6826C12.2262 15.7621 12.2857 15.8564 12.3264 15.9601C12.3671 16.0639 12.388 16.1751 12.388 16.2874C12.388 16.3998 12.3671 16.511 12.3264 16.6148C12.2857 16.7185 12.2262 16.8128 12.151 16.8922C12.0758 16.9716 11.9863 17.0347 11.8881 17.0777C11.7898 17.1206 11.6846 17.1428 11.5783 17.1428H7.67749ZM7.67749 14.0734C7.46273 14.0734 7.25688 13.9833 7.10502 13.8229C6.95316 13.6625 6.86779 13.4449 6.86779 13.2181C6.86779 12.9913 6.95316 12.7737 7.10502 12.6133C7.25688 12.4529 7.46273 12.3628 7.67749 12.3628H17.4246C17.6394 12.3628 17.8455 12.4529 17.9974 12.6133C18.1493 12.7737 18.2346 12.9913 18.2346 13.2181C18.2346 13.4449 18.1493 13.6625 17.9974 13.8229C17.8455 13.9833 17.6394 14.0734 17.4246 14.0734H7.67749ZM7.58401 10.9686C7.36925 10.9686 7.16312 10.8785 7.01126 10.7181C6.8594 10.5577 6.77403 10.3402 6.77403 10.1133C6.77403 9.88649 6.8594 9.66899 7.01126 9.50859C7.16312 9.34819 7.36925 9.25808 7.58401 9.25808H17.3298C17.5445 9.25808 17.7506 9.34819 17.9025 9.50859C18.0544 9.66899 18.1397 9.88649 18.1397 10.1133C18.1397 10.3402 18.0544 10.5577 17.9025 10.7181C17.7506 10.8785 17.5445 10.9686 17.3298 10.9686H7.58401Z" fill="#3FEFC2"/>
</svg>
